name C:\Users\Nicos\Desktop\Gil_twoSteps\Study2\ExperimentalData\IK_Splined\twoSteps_IK_BSplines_160_meshInts_study2_p02_s_01_lowIK_modROI.mot
datacolumns 38
datarows 7
range 0.65500000 0.65948249
endheader
                time	         pelvis_tilt	         pelvis_list	     pelvis_rotation	           pelvis_tx	           pelvis_ty	           pelvis_tz	       hip_flexion_r	     hip_adduction_r	      hip_rotation_r	        knee_angle_r	       ankle_angle_r	    subtalar_angle_r	         mtp_angle_r	       hip_flexion_l	     hip_adduction_l	      hip_rotation_l	        knee_angle_l	       ankle_angle_l	    subtalar_angle_l	         mtp_angle_l	    lumbar_extension	      lumbar_bending	     lumbar_rotation	          arm_flex_r	           arm_add_r	           arm_rot_r	        elbow_flex_r	           pro_sup_r	        wrist_flex_r	         wrist_dev_r	          arm_flex_l	           arm_add_l	           arm_rot_l	        elbow_flex_l	           pro_sup_l	        wrist_flex_l	         wrist_dev_l	
          0.65500000	        -17.54923519	          3.75595239	          9.30489370	          0.30818308	          0.89318251	          0.34005558	         30.45800521	         -9.40504849	        -15.86535108	       -111.22188218	        -14.95143982	        -31.61878884	         -8.98091157	         30.88835543	          6.10878788	         -0.16583289	        -50.40834099	         22.03686320	         -8.94944844	          6.04319996	        -27.94407551	         -9.08664356	         -2.16891961	        -29.64273636	        -10.40013989	        -15.95041566	         49.25557490	         77.12102517	        -27.11779737	         30.37102041	         -2.33940350	        -11.78780060	         -7.94660767	         69.04944482	         69.47872985	          4.67574909	         19.78438457	
          0.65542251	        -17.56695597	          3.71641762	          9.42433747	          0.31036011	          0.89306628	          0.33991337	         30.74447017	         -9.44207628	        -15.91900403	       -111.43746205	        -14.78583819	        -31.60359643	         -8.95292019	         30.73573238	          6.10057092	         -0.08013449	        -50.35329825	         22.06015207	         -8.94115601	          6.10903651	        -27.91794293	         -8.96365085	         -2.18794071	        -29.89322786	        -10.33929043	        -16.03600855	         48.99890018	         77.12639385	        -27.09992541	         30.43953110	         -2.02448851	        -11.71279700	         -7.82969973	         69.26412126	         69.42394946	          4.67785625	         19.76701312	
          0.65675749	        -17.62294638	          3.59150390	          9.80173102	          0.31723862	          0.89269901	          0.33946403	         31.64958252	         -9.55906899	        -16.08852546	       -112.11860643	        -14.26260461	        -31.55559461	         -8.86447885	         30.25350582	          6.07460869	          0.19063745	        -50.17938566	         22.13373539	         -8.91495533	          6.31705314	        -27.83537467	         -8.57504409	         -2.24803962	        -30.68467874	        -10.14703095	        -16.30644716	         48.18791286	         77.14335671	        -27.04345731	         30.65599688	         -1.02948570	        -11.47581623	         -7.46031835	         69.94241118	         69.25086580	          4.68451404	         19.71212643	
          0.65772500	        -17.66111556	          3.49833688	         10.08215050	          0.32221367	          0.89243711	          0.33913731	         32.30629069	         -9.64954578	        -16.21313401	       -112.59783468	        -13.88619378	        -31.51993836	         -8.79787296	         29.90503511	          6.04915703	          0.39288565	        -50.05238323	         22.17200787	         -8.88922807	          6.47527588	        -27.77591006	         -8.28556550	         -2.30153094	        -31.27217760	         -9.99548843	        -16.53732407	         47.66780561	         77.14320538	        -26.99911139	         30.80561414	         -0.31598024	        -11.30157250	         -7.19321127	         70.45721310	         69.10702722	          4.68767115	         19.67609299	
          0.65772500	        -17.66111556	          3.49833688	         10.08215050	          0.32221367	          0.89243711	          0.33913731	         32.30629069	         -9.64954578	        -16.21313401	       -112.59783468	        -13.88619378	        -31.51993836	         -8.79787296	         29.90503511	          6.04915703	          0.39288565	        -50.05238323	         22.17200787	         -8.88922807	          6.47527588	        -27.77591006	         -8.28556550	         -2.30153094	        -31.27217760	         -9.99548843	        -16.53732407	         47.66780561	         77.14320538	        -26.99911139	         30.80561414	         -0.31598024	        -11.30157250	         -7.19321127	         70.45721310	         69.10702722	          4.68767115	         19.67609299	
          0.65814751	        -17.67667279	          3.45643487	         10.20779460	          0.32438160	          0.89232470	          0.33899415	         32.59341349	         -9.69167982	        -16.26835716	       -112.80046009	        -13.72310627	        -31.50396732	         -8.76762924	         29.75332837	          6.03498195	          0.48397824	        -49.99647837	         22.18177749	         -8.87488523	          6.54781408	        -27.75011537	         -8.15553526	         -2.32947255	        -31.53514880	         -9.92368157	        -16.65423357	         47.47187479	         77.13739973	        -26.97816779	         30.86760145	         -0.00790515	        -11.22433034	         -7.07684223	         70.69273390	         69.03572823	          4.68828057	         19.66208453	
          0.65948249	        -17.72582729	          3.32404164	         10.60477867	          0.33123141	          0.89196955	          0.33854180	         33.50060431	         -9.82480619	        -16.44283977	       -113.44067364	        -13.20781630	        -31.45350535	         -8.67207141	         29.27399698	          5.99019451	          0.77179364	        -49.81984182	         22.21264549	         -8.82956774	          6.77700519	        -27.66861468	         -7.74469279	         -2.41775663	        -32.36603046	         -9.69680123	        -17.02361987	         46.85281339	         77.11905624	        -26.91199456	         31.06345606	          0.96548637	        -10.98027663	         -6.70916354	         71.43688351	         68.81045253	          4.69020607	         19.61782348	
